<svg xmlns="http://www.w3.org/2000/svg" viewBox="0 0 800 430" role="img"><title>Architetture e simboli: Cesare e Augusto</title><defs><linearGradient id="s" x2="0" y2="1"><stop stop-color="#0b2e47"/><stop offset="1" stop-color="#061d2f"/></linearGradient></defs><path fill="url(#s)" d="M0 0h800v430H0z"/><circle cx="680" cy="120" r="74" fill="#e0b36d" opacity=".8"/><path d="M0 355Q180 270 350 340T800 320V430H0Z" fill="#24424b"/><path d="M40 165L285 55 530 165Z" fill="#c99145"/><path d="M65 170H505V195H65Z M35 375H535V390H35Z M55 355H515V375H55Z" fill="#ead3a3"/><path d="M85 352V208h24v144M77 197h40v14h-40z" fill="#d8bb83"/><path d="M93 347V218m8 0v129" stroke="#887247" stroke-width="3"/><path d="M180 352V208h24v144M172 197h40v14h-40z" fill="#d8bb83"/><path d="M188 347V218m8 0v129" stroke="#887247" stroke-width="3"/><path d="M275 352V208h24v144M267 197h40v14h-40z" fill="#d8bb83"/><path d="M283 347V218m8 0v129" stroke="#887247" stroke-width="3"/><path d="M370 352V208h24v144M362 197h40v14h-40z" fill="#d8bb83"/><path d="M378 347V218m8 0v129" stroke="#887247" stroke-width="3"/><path d="M465 352V208h24v144M457 197h40v14h-40z" fill="#d8bb83"/><path d="M473 347V218m8 0v129" stroke="#887247" stroke-width="3"/><circle cx="662" cy="289" r="60" fill="#c99145" stroke="#f3e4c7" stroke-width="5"/><path d="M646 320v-25q-32-48 4-64q42-5 39 33l-10 14v42" fill="#715331"/><path d="M0 390h800v40H0z" fill="#142d37"/><path d="M20 404h760" stroke="#c99145" stroke-width="3"/></svg>