<svg xmlns="http://www.w3.org/2000/svg" viewBox="0 0 800 430" role="img"><title>Architetture e simboli: Il mondo che cambiò volto</title><defs><linearGradient id="s" x2="0" y2="1"><stop stop-color="#0b2e47"/><stop offset="1" stop-color="#061d2f"/></linearGradient></defs><path fill="url(#s)" d="M0 0h800v430H0z"/><circle cx="680" cy="120" r="74" fill="#e0b36d" opacity=".8"/><path d="M0 355Q180 270 350 340T800 320V430H0Z" fill="#24424b"/><path d="M70 365V205h65v-42l35-35 35 35v42h65v160M325 365V155h45v-30h30v30h45v-30h30v30h45v210" fill="#bca47a"/><path d="M141 365V285a30 30 0 0 1 60 0v80M370 365V268a35 35 0 0 1 70 0v97" fill="#0b2e47"/><path d="M325 215h195M70 232h200" stroke="#e0b36d" stroke-width="6"/><path d="M590 350v-130l40 55 35-85 35 85 40-55v130z" fill="#c99145"/><path d="M0 390h800v40H0z" fill="#142d37"/><path d="M20 404h760" stroke="#c99145" stroke-width="3"/></svg>